<svg xmlns="http://www.w3.org/2000/svg" viewBox="-3 0 31.4 100" overflow="visible" fill="currentColor">
  <!-- The r in kvarn as a coffee grinder: box with a drawer knob, bowl, spindle, crank with a wooden handle.
       1 em high, the baseline at y = 100. The handle hangs out over the n, above its x-height. -->
  <path fill-rule="evenodd" d="M3.5 74H24.5A2 2 0 0 1 26.5 76V98A2 2 0 0 1 24.5 100H3.5A2 2 0 0 1 1.5 98V76A2 2 0 0 1 3.5 74ZM14 85.2A2.8 2.8 0 1 0 14 90.8A2.8 2.8 0 1 0 14 85.2Z" />
  <rect x="7.5" y="50" width="13" height="25" />
  <path d="M2 45.4H26L23.5 52H4.5Z" />
  <rect x="12.6" y="35" width="2.8" height="11" />
  <path d="M14 37L33 31" stroke="currentColor" stroke-width="4.5" stroke-linecap="round" fill="none" />
  <rect x="29.5" y="24" width="8" height="12.5" rx="4" />
</svg>
